<svg id="Layer_1" data-name="Layer 1" xmlns="http://www.w3.org/2000/svg" viewBox="0 0 660.74 113.26"><defs><style>.cls-1{fill:#0054a6;}.cls-2,.cls-5{fill:#fff;}.cls-3{fill:none;stroke:#fff;}.cls-4{fill:#231f20;}.cls-5{font-size:29.3px;font-family:ArialMT, Arial;letter-spacing:0.28em;}.cls-6{letter-spacing:0.22em;}.cls-7{letter-spacing:0.3em;}.cls-8{letter-spacing:0.28em;}.cls-9{letter-spacing:0.22em;}</style></defs><path class="cls-1" d="M204.53,300.08a56.63,56.63,0,1,1-56.63-56.63A56.62,56.62,0,0,1,204.53,300.08Z" transform="translate(-91.27 -243.45)"/><path class="cls-2" d="M147.9,246.14a53.94,53.94,0,1,0,53.94,53.94A53.94,53.94,0,0,0,147.9,246.14Zm0,104.23a50.29,50.29,0,1,1,50.29-50.29A50.29,50.29,0,0,1,147.9,350.37Z" transform="translate(-91.27 -243.45)"/><path class="cls-3" d="M147.9,246.14a53.94,53.94,0,1,0,53.94,53.94A53.94,53.94,0,0,0,147.9,246.14Zm0,104.23a50.29,50.29,0,1,1,50.29-50.29A50.29,50.29,0,0,1,147.9,350.37Z" transform="translate(-91.27 -243.45)"/><path class="cls-2" d="M96,290.57s20.95-28.25,46.22-10.44,50.11-10.89,50.11-10.89-26.19,40.51-51.05,23.86S107,280.89,96,290.57Z" transform="translate(-91.27 -243.45)"/><path class="cls-4" d="M91.15,312.06" transform="translate(-91.27 -243.45)"/><path class="cls-2" d="M95.85,288.71S113,277.16,125,292.08,156.49,296,156.49,296s-22.32,17.32-34.25,3.12S104,285.5,95.85,288.71Z" transform="translate(-91.27 -243.45)"/><path class="cls-2" d="M162.12,269.51s2.41,65.84-38.53,77.66L138.45,350S171.59,319.38,162.12,269.51Z" transform="translate(-91.27 -243.45)"/><path class="cls-2" d="M165.05,267.78S174,336,134.82,351.9L152,350.14S180.92,316.35,165.05,267.78Z" transform="translate(-91.27 -243.45)"/><path class="cls-2" d="M249.25,264.22v35.6c0,2.31.56,3.89,1.69,4.72q1.44,1.11,5.12,1.11h1.88v3H229.69v-3h2.64q6,0,6-5.83v-35.6h-9.31a14.84,14.84,0,0,0-4,.38,4.36,4.36,0,0,0-2.85,2.61,30.14,30.14,0,0,0-1.62,6.25h-3.18l1.42-14.64h2.53a5.08,5.08,0,0,0,1.5,1.13,8.06,8.06,0,0,0,2.26.24h37.44a5.31,5.31,0,0,0,3.77-1.37h2.53l1.42,14.64h-3.19a42.68,42.68,0,0,0-1-4.83c-.66-2-1.6-3.29-2.8-3.8a13.29,13.29,0,0,0-4.7-.61Z" transform="translate(-91.27 -243.45)"/><path class="cls-2" d="M315,271a16.52,16.52,0,0,0-1.22-5,4.36,4.36,0,0,0-4.16-2.19H292.51v18.11h12.72c2.12,0,3.64-.44,4.54-1.31s1.37-2.39,1.37-4.56h3.12v16.07h-3.12c0-2.91-.85-4.68-2.53-5.31a14.22,14.22,0,0,0-4.56-.56H292.51v14.47a7.11,7.11,0,0,0,.42,3,2.48,2.48,0,0,0,2.48,1.17h13q4.28,0,6.25-2c1.2-1.16,2.11-3.25,2.75-6.26h3l-.92,12.62H272.32v-3.12h3.21q6.11,0,6.11-5.76v-32c0-2.37-.58-4-1.73-4.81q-1.46-1.07-5.13-1.06H274v-3.12h43.25l.81,11.6Z" transform="translate(-91.27 -243.45)"/><path class="cls-2" d="M370.77,293.48h3.13a50.54,50.54,0,0,1-4.44,13.92,16.71,16.71,0,0,0-4.64-.53,50.21,50.21,0,0,0-6,.71,51.93,51.93,0,0,1-7.49.7,32.25,32.25,0,0,1-14-3.07,26.09,26.09,0,0,1-10.76-9.16,22,22,0,0,1-3.79-12.52q0-10.5,8.71-17.81t21.36-7.31a30.48,30.48,0,0,1,9.42,1.36q5.43,1.8,5.63,1.8a2,2,0,0,0,1.57-.73h2l.73,13.4h-3.07q-2.56-7.75-8.82-10.54a16.6,16.6,0,0,0-6.82-1.39A17.77,17.77,0,0,0,339.79,268q-5.34,5.78-5.33,14.76a23.9,23.9,0,0,0,2.45,10.75,19.9,19.9,0,0,0,7.37,8.21,18.5,18.5,0,0,0,10.06,2.88,16.81,16.81,0,0,0,9.94-3.08A19.55,19.55,0,0,0,370.77,293.48Z" transform="translate(-91.27 -243.45)"/><path class="cls-2" d="M413.07,305.9h1.08q5.93,0,5.92-6.15V285.57H394.26v14.37q0,6,6,6h1.15V309H376.26V305.9h1.34q5.79,0,5.79-5.81V268.3q0-5.85-5.87-5.85h-1.26v-3.11h25.19v3.11h-1.07q-6.12,0-6.12,5.87v12.55h25.81V268.55q0-3.44-1.44-4.77c-1-.88-2.58-1.33-4.86-1.33h-.7v-3.11h25.19v3.11h-1.42q-5.89,0-5.89,5.85v31.63c0,2.16.47,3.69,1.4,4.61s2.49,1.36,4.64,1.36h1.27V309H413.07Z" transform="translate(-91.27 -243.45)"/><path class="cls-2" d="M449.3,269.25v30.18q0,4.88,3,5.89a15.22,15.22,0,0,0,4.77.59V309h-19v-3.11h.46a7.45,7.45,0,0,0,4.37-1c1.07-.75,1.61-2.11,1.61-4.06V264.21a10.73,10.73,0,0,0-6.31-1.75v-3.11h16.19l32.12,34V269.25q0-5.43-2.68-6.28a16.72,16.72,0,0,0-4.8-.51h-.77v-3.11h20.19v3.11h-.77a12.41,12.41,0,0,0-4.35.54,3.46,3.46,0,0,0-2.07,3.51v42.7H487Z" transform="translate(-91.27 -243.45)"/><path class="cls-2" d="M499.51,284.17A23.5,23.5,0,0,1,508,265.59q8.46-7.32,21.64-7.32,12.39,0,20.21,6.75a22,22,0,0,1,7.82,17.44A23.8,23.8,0,0,1,552.91,297a26.15,26.15,0,0,1-12.49,9.11,37.83,37.83,0,0,1-26.61-.79,23.66,23.66,0,0,1-10.89-9.18A22,22,0,0,1,499.51,284.17Zm11.68-3.67q0,10.74,5.22,17.57a16.12,16.12,0,0,0,13.48,6.74q10.36,0,14.29-9.75a26.8,26.8,0,0,0,1.76-9.85q0-9.79-4.72-16.49a15.67,15.67,0,0,0-13.52-7.12q-10.22,0-14.43,9A22.64,22.64,0,0,0,511.19,280.5Z" transform="translate(-91.27 -243.45)"/><path class="cls-2" d="M589.11,307.53l-18.07-38-1.75,27.38a20.48,20.48,0,0,0,0,3.76,3.74,3.74,0,0,0,1.8,3,10.17,10.17,0,0,0,4.68.83v3H558.29v-3q5.34-.11,6.11-3a35.64,35.64,0,0,0,.58-5.15l1.75-27.84c.13-2.25-.14-3.77-.81-4.54s-2.14-1.22-4.44-1.32v-3H578L593.35,292,608,259.68H625v3l-3.23.19c-1.38.25-2.18.8-2.38,1.65a15.37,15.37,0,0,0-.08,4l1.9,28.36a35.53,35.53,0,0,0,.35,3.84c.34,1.6,1,2.6,2,3a15.55,15.55,0,0,0,4.59.79v3H603.35v-3h1.34c2.27,0,3.8-.27,4.59-.83,1-.67,1.45-2.06,1.45-4.16,0-.86-.05-2.06-.16-3.61l-2-27.31L591,307.53Z" transform="translate(-91.27 -243.45)"/><path class="cls-2" d="M662.3,289.72H645.08l-3.3,9c-.79,2.13-.83,3.63-.12,4.48s2.8,1.28,6.33,1.28h1v3H628.16v-3h1.19a6.63,6.63,0,0,0,5.11-2.07,16,16,0,0,0,2.61-5l13.43-36.7-.84-2.25h11.63L677,297.62a14.69,14.69,0,0,0,2.77,4.84,7.66,7.66,0,0,0,5.1,2.07v3H659.32v-3h2.76c2.3,0,3.75-.49,4.33-1.47s.44-2.42-.38-4.41Zm-1.82-4.22-7.22-18-6.59,18Z" transform="translate(-91.27 -243.45)"/><path class="cls-2" d="M703.76,287.21v11.73c0,3.73,2.08,5.59,6.22,5.59h2.35v3h-27.5v-3h1.26q3.55,0,5-1c1.17-.83,1.76-2.34,1.76-4.55V268.54q0-3.35-1.4-4.6t-4.83-1.26H685v-3l10.12-.6q8-.56,12.89-.56a61.63,61.63,0,0,1,13.76,1.2,16.79,16.79,0,0,1,8,4.13,11.84,11.84,0,0,1,3.75,8.75q0,9.31-11.62,12.39a39.06,39.06,0,0,1,6.32,7q2.26,3,7.17,8.76a14.85,14.85,0,0,0,4.71,3.31,22.63,22.63,0,0,0,5.67,1.24v2.95c-1.14.07-2.77.11-4.86.11q-9.15,0-13.28-2.07a15.72,15.72,0,0,1-4.13-3,49.23,49.23,0,0,1-4.87-5.79l-4.51-6.11a31.86,31.86,0,0,0-4.1-4.25Zm0-25.33V284h3.07q7,0,10.51-2.09,4.49-2.62,4.49-8.95,0-11-14-11.05Z" transform="translate(-91.27 -243.45)"/><text class="cls-5" transform="translate(135.66 99.94)">ENGENHARI<tspan class="cls-6" x="248.03" y="0">A</tspan><tspan class="cls-7" x="274.16" y="0" xml:space="preserve">  </tspan><tspan class="cls-8" x="308.02" y="0">OCEÂNIC</tspan><tspan class="cls-9" x="498.95" y="0">A</tspan></text></svg>