<svg id="Camada_1" data-name="Camada 1" xmlns="http://www.w3.org/2000/svg" viewBox="0 0 113.26 113.26"><defs><style>.cls-1{fill:#004899;}.cls-2{fill:#fff;}.cls-3{fill:none;stroke:#fff;}.cls-4{fill:#1d1d1b;}</style></defs><path class="cls-1" d="M120.69,64A56.63,56.63,0,1,1,64.06,7.37,56.63,56.63,0,0,1,120.69,64Z" transform="translate(-7.43 -7.37)"/><path class="cls-2" d="M64.06,10.06A53.94,53.94,0,1,0,118,64,53.94,53.94,0,0,0,64.06,10.06Zm0,104.23A50.29,50.29,0,1,1,114.35,64,50.3,50.3,0,0,1,64.06,114.29Z" transform="translate(-7.43 -7.37)"/><path class="cls-3" d="M64.06,10.06A53.94,53.94,0,1,0,118,64,53.94,53.94,0,0,0,64.06,10.06Zm0,104.23A50.29,50.29,0,1,1,114.35,64,50.3,50.3,0,0,1,64.06,114.29Z" transform="translate(-7.43 -7.37)"/><path class="cls-2" d="M12.2,54.49s21-28.25,46.23-10.44,50.1-10.89,50.1-10.89S82.34,73.67,57.48,57,23.16,44.81,12.2,54.49Z" transform="translate(-7.43 -7.37)"/><path class="cls-4" d="M7.31,76" transform="translate(-7.43 -7.37)"/><path class="cls-2" d="M12,52.62S29.16,41.07,41.14,56s31.51,3.91,31.51,3.91S50.33,77.23,38.41,63,20.12,49.42,12,52.62Z" transform="translate(-7.43 -7.37)"/><path class="cls-2" d="M78.28,33.43s2.41,65.84-38.53,77.66l14.87,2.82S87.75,83.29,78.28,33.43Z" transform="translate(-7.43 -7.37)"/><path class="cls-2" d="M81.21,31.7S90.12,99.92,51,115.82l17.16-1.76S97.09,80.27,81.21,31.7Z" transform="translate(-7.43 -7.37)"/></svg>