<svg id="Layer_1" data-name="Layer 1" xmlns="http://www.w3.org/2000/svg" viewBox="0 0 534.63 94.63"><defs><style>.cls-1,.cls-2{fill:#fff;}.cls-2{font-size:29.3px;font-family:ArialMT, Arial;letter-spacing:0.28em;}.cls-3{letter-spacing:0.22em;}.cls-4{letter-spacing:0.3em;}.cls-5{letter-spacing:0.28em;}.cls-6{letter-spacing:0.22em;}</style></defs><path class="cls-1" d="M179.78,397.7v35.6c0,2.32.56,3.89,1.68,4.73q1.46,1.11,5.13,1.11h1.87v3H160.21v-3h2.65q6,0,6-5.84V397.7h-9.31a14.8,14.8,0,0,0-4,.39,4.32,4.32,0,0,0-2.84,2.6,30.32,30.32,0,0,0-1.62,6.25H147.9l1.42-14.63h2.54a5.15,5.15,0,0,0,1.49,1.13,8.62,8.62,0,0,0,2.27.23h37.44a5.28,5.28,0,0,0,3.76-1.36h2.54l1.42,14.63h-3.19a46.35,46.35,0,0,0-1-4.83c-.67-2-1.6-3.28-2.81-3.79a13.18,13.18,0,0,0-4.69-.62Z" transform="translate(-147.9 -391.76)"/><path class="cls-1" d="M245.54,404.52a16.52,16.52,0,0,0-1.22-5,4.37,4.37,0,0,0-4.16-2.19H223v18.11h12.72c2.12,0,3.63-.43,4.54-1.31s1.36-2.39,1.36-4.56h3.13v16.07h-3.13q0-4.35-2.53-5.31a14.19,14.19,0,0,0-4.56-.55H223v14.46a7.08,7.08,0,0,0,.42,3,2.45,2.45,0,0,0,2.47,1.18h13q4.28,0,6.26-2c1.19-1.15,2.11-3.24,2.74-6.26h3l-.92,12.63h-47.2v-3.13h3.2c4.07,0,6.11-1.91,6.11-5.75v-32c0-2.38-.57-4-1.72-4.82-1-.7-2.69-1-5.14-1h-.76v-3.13h43.25l.81,11.61Z" transform="translate(-147.9 -391.76)"/><path class="cls-1" d="M301.3,427h3.12A50.21,50.21,0,0,1,300,440.89a16.63,16.63,0,0,0-4.63-.53,49.74,49.74,0,0,0-6,.7,50.42,50.42,0,0,1-7.48.7,32.21,32.21,0,0,1-14-3.06,26.18,26.18,0,0,1-10.76-9.16A22.06,22.06,0,0,1,253.3,417q0-10.51,8.71-17.82t21.35-7.31a30.79,30.79,0,0,1,9.42,1.36q5.45,1.81,5.63,1.81a2,2,0,0,0,1.57-.73h2l.73,13.4h-3.06Q297,400,290.79,397.18a16.65,16.65,0,0,0-6.83-1.39,17.8,17.8,0,0,0-13.65,5.66Q265,407.21,265,416.21A23.81,23.81,0,0,0,267.44,427a19.81,19.81,0,0,0,7.37,8.2,18.4,18.4,0,0,0,10.06,2.89,16.88,16.88,0,0,0,9.94-3.08A19.78,19.78,0,0,0,301.3,427Z" transform="translate(-147.9 -391.76)"/><path class="cls-1" d="M343.6,439.38h1.08q5.91,0,5.92-6.15V419.06H324.79v14.37q0,6,6,5.95H332v3.12H306.79v-3.12h1.34c3.85,0,5.78-1.93,5.78-5.81V401.79q0-5.85-5.86-5.85h-1.26v-3.11H332v3.11H330.9c-4.07,0-6.11,1.95-6.11,5.87v12.55H350.6V402q0-3.44-1.44-4.77c-1-.89-2.59-1.33-4.87-1.33h-.69v-3.11h25.19v3.11h-1.43q-5.88,0-5.88,5.85v31.63c0,2.16.46,3.69,1.4,4.6s2.48,1.36,4.64,1.36h1.27v3.12H343.6Z" transform="translate(-147.9 -391.76)"/><path class="cls-1" d="M379.83,402.73v30.18c0,3.26,1,5.22,3,5.9a15.26,15.26,0,0,0,4.77.58v3.11h-19v-3.11h.46a7.49,7.49,0,0,0,4.37-1c1.07-.76,1.61-2.11,1.61-4.06V397.7a10.74,10.74,0,0,0-6.32-1.76v-3.11H385l32.13,34V402.73c0-3.61-.9-5.71-2.69-6.28a16.72,16.72,0,0,0-4.8-.51h-.76v-3.11H429v3.11h-.76a12.42,12.42,0,0,0-4.36.55,3.44,3.44,0,0,0-2.06,3.5v42.7h-4.32Z" transform="translate(-147.9 -391.76)"/><path class="cls-1" d="M430,417.66a23.51,23.51,0,0,1,8.45-18.58q8.46-7.32,21.65-7.32,12.39,0,20.2,6.74A22,22,0,0,1,488.16,416a23.89,23.89,0,0,1-4.72,14.53,26.16,26.16,0,0,1-12.5,9.1,37.89,37.89,0,0,1-26.61-.78,23.82,23.82,0,0,1-10.89-9.18A22.18,22.18,0,0,1,430,417.66ZM441.72,414q0,10.75,5.22,17.57a16.09,16.09,0,0,0,13.48,6.75q10.36,0,14.28-9.75a26.65,26.65,0,0,0,1.77-9.86q0-9.78-4.72-16.49a15.71,15.71,0,0,0-13.52-7.12q-10.22,0-14.44,9A22.78,22.78,0,0,0,441.72,414Z" transform="translate(-147.9 -391.76)"/><path class="cls-1" d="M519.64,441l-18.07-38-1.75,27.39a20.51,20.51,0,0,0,0,3.76,3.77,3.77,0,0,0,1.8,3,10.28,10.28,0,0,0,4.67.83v3H488.82v-3c3.56-.08,5.59-1.08,6.11-3a34.43,34.43,0,0,0,.57-5.15L497.25,402c.13-2.26-.14-3.77-.8-4.55s-2.15-1.21-4.45-1.32v-3h16.57l15.3,32.3,14.7-32.3H555.5v3l-3.22.19c-1.39.25-2.18.8-2.39,1.66a15.46,15.46,0,0,0-.07,4l1.9,28.36a32.35,32.35,0,0,0,.35,3.83c.33,1.61,1,2.61,2,3a15.8,15.8,0,0,0,4.58.79v3H533.88v-3h1.34c2.26,0,3.79-.28,4.58-.83,1-.68,1.45-2.07,1.45-4.17,0-.85,0-2-.15-3.61l-2-27.31L521.52,441Z" transform="translate(-147.9 -391.76)"/><path class="cls-1" d="M592.83,423.21H575.61l-3.3,9c-.8,2.14-.84,3.63-.12,4.49S575,438,578.52,438h1v3H558.69v-3h1.19A6.62,6.62,0,0,0,565,436a15.62,15.62,0,0,0,2.61-5L581,394.26l-.85-2.26h11.63l15.7,39.1a15,15,0,0,0,2.76,4.85,7.69,7.69,0,0,0,5.11,2.07v3H589.84v-3h2.76c2.31,0,3.75-.49,4.34-1.47s.43-2.43-.38-4.41ZM591,419l-7.21-18-6.6,18Z" transform="translate(-147.9 -391.76)"/><path class="cls-1" d="M634.29,420.7v11.72q0,5.59,6.22,5.6h2.34v3h-27.5v-3h1.26q3.55,0,5-1,1.76-1.25,1.75-4.55V402c0-2.23-.46-3.77-1.39-4.61s-2.54-1.26-4.84-1.26h-1.64v-3l10.12-.6q8-.57,12.88-.57a61.73,61.73,0,0,1,13.77,1.2,16.72,16.72,0,0,1,8,4.14,11.8,11.8,0,0,1,3.76,8.74q0,9.32-11.63,12.4a38.92,38.92,0,0,1,6.33,7q2.25,3.06,7.16,8.76a14.62,14.62,0,0,0,4.72,3.31,22,22,0,0,0,5.67,1.24v2.95c-1.15.07-2.77.11-4.86.11q-9.15,0-13.28-2.06a15.42,15.42,0,0,1-4.14-3,48.93,48.93,0,0,1-4.86-5.78l-4.51-6.12a32.45,32.45,0,0,0-4.1-4.24Zm0-25.33v22.09h3.07q7,0,10.5-2.1,4.5-2.62,4.49-8.95,0-11-14-11Z" transform="translate(-147.9 -391.76)"/><text class="cls-2" transform="translate(9.56 85.12)">ENGENHARI<tspan class="cls-3" x="248.03" y="0">A</tspan><tspan class="cls-4" x="274.16" y="0" xml:space="preserve">  </tspan><tspan class="cls-5" x="308.02" y="0">OCEÂNIC</tspan><tspan class="cls-6" x="498.95" y="0">A</tspan></text></svg>